<mxfile host="app.diagrams.net" agent="Mozilla/5.0 (Windows NT 10.0; Win64; x64) AppleWebKit/537.36 (KHTML, like Gecko) Chrome/138.0.0.0 Safari/537.36" version="28.0.6">
  <diagram name="Page-1" id="dCSaZeXHTG-qYKW9uUO6">
    <mxGraphModel dx="2276" dy="743" grid="1" gridSize="10" guides="1" tooltips="1" connect="1" arrows="1" fold="1" page="1" pageScale="1" pageWidth="850" pageHeight="1100" math="0" shadow="0">
      <root>
        <mxCell id="0" />
        <mxCell id="1" parent="0" />
        <mxCell id="Vo0wjB5p105ooSlGNlNh-1" value="Q: Are the notes related to BankMobile?" style="rounded=0;whiteSpace=wrap;html=1;" vertex="1" parent="1">
          <mxGeometry x="240" y="7" width="160" height="73" as="geometry" />
        </mxCell>
        <mxCell id="Vo0wjB5p105ooSlGNlNh-2" value="&lt;font style=&quot;font-size: 16px;&quot;&gt;No&lt;/font&gt;" style="endArrow=classic;html=1;rounded=0;exitX=1;exitY=1;exitDx=0;exitDy=0;" edge="1" parent="1" source="Vo0wjB5p105ooSlGNlNh-1">
          <mxGeometry width="50" height="50" relative="1" as="geometry">
            <mxPoint x="270" y="220" as="sourcePoint" />
            <mxPoint x="480" y="160" as="targetPoint" />
          </mxGeometry>
        </mxCell>
        <mxCell id="Vo0wjB5p105ooSlGNlNh-3" value="&lt;font style=&quot;font-size: 16px;&quot;&gt;Yes&lt;/font&gt;" style="endArrow=classic;html=1;rounded=0;exitX=0;exitY=1;exitDx=0;exitDy=0;" edge="1" parent="1" source="Vo0wjB5p105ooSlGNlNh-1">
          <mxGeometry width="50" height="50" relative="1" as="geometry">
            <mxPoint x="390" y="180" as="sourcePoint" />
            <mxPoint x="160" y="160" as="targetPoint" />
          </mxGeometry>
        </mxCell>
        <mxCell id="Vo0wjB5p105ooSlGNlNh-4" value="Q: Has student set up a preference in BankMobile?" style="rounded=0;whiteSpace=wrap;html=1;" vertex="1" parent="1">
          <mxGeometry x="79" y="325" width="160" height="73" as="geometry" />
        </mxCell>
        <mxCell id="Vo0wjB5p105ooSlGNlNh-5" value="" style="endArrow=classic;html=1;rounded=0;entryX=0.5;entryY=0;entryDx=0;entryDy=0;exitX=0.518;exitY=1.006;exitDx=0;exitDy=0;exitPerimeter=0;" edge="1" parent="1" source="Vo0wjB5p105ooSlGNlNh-6" target="Vo0wjB5p105ooSlGNlNh-4">
          <mxGeometry width="50" height="50" relative="1" as="geometry">
            <mxPoint x="160" y="260" as="sourcePoint" />
            <mxPoint x="190" y="290" as="targetPoint" />
          </mxGeometry>
        </mxCell>
        <mxCell id="Vo0wjB5p105ooSlGNlNh-6" value="Check BankMobile to see if student has set up a preference." style="ellipse;whiteSpace=wrap;html=1;" vertex="1" parent="1">
          <mxGeometry x="93" y="160" width="130" height="90" as="geometry" />
        </mxCell>
        <mxCell id="Vo0wjB5p105ooSlGNlNh-7" value="&lt;font style=&quot;font-size: 16px;&quot;&gt;Yes&lt;/font&gt;" style="endArrow=classic;html=1;rounded=0;exitX=0;exitY=1;exitDx=0;exitDy=0;" edge="1" parent="1">
          <mxGeometry x="-0.0008" width="50" height="50" relative="1" as="geometry">
            <mxPoint x="79" y="398" as="sourcePoint" />
            <mxPoint x="-1" y="478" as="targetPoint" />
            <mxPoint as="offset" />
          </mxGeometry>
        </mxCell>
        <mxCell id="Vo0wjB5p105ooSlGNlNh-8" value="Remove from DNR, place on manual if&lt;div&gt;&amp;nbsp;old Term&lt;/div&gt;" style="shape=hexagon;perimeter=hexagonPerimeter2;whiteSpace=wrap;html=1;fixedSize=1;" vertex="1" parent="1">
          <mxGeometry x="-60" y="480" width="130" height="90" as="geometry" />
        </mxCell>
        <mxCell id="Vo0wjB5p105ooSlGNlNh-9" value="&lt;font style=&quot;font-size: 16px;&quot;&gt;No&lt;/font&gt;" style="endArrow=classic;html=1;rounded=0;exitX=1;exitY=1;exitDx=0;exitDy=0;" edge="1" parent="1">
          <mxGeometry width="50" height="50" relative="1" as="geometry">
            <mxPoint x="240" y="400" as="sourcePoint" />
            <mxPoint x="320" y="480" as="targetPoint" />
          </mxGeometry>
        </mxCell>
        <mxCell id="Vo0wjB5p105ooSlGNlNh-10" value="Has student been notified to create BM prior? (Check SPACMNT)" style="ellipse;whiteSpace=wrap;html=1;" vertex="1" parent="1">
          <mxGeometry x="255" y="480" width="130" height="90" as="geometry" />
        </mxCell>
        <mxCell id="Vo0wjB5p105ooSlGNlNh-11" value="&lt;font style=&quot;font-size: 16px;&quot;&gt;Yes&lt;/font&gt;" style="endArrow=classic;html=1;rounded=0;exitX=0;exitY=1;exitDx=0;exitDy=0;" edge="1" parent="1">
          <mxGeometry x="-0.0008" width="50" height="50" relative="1" as="geometry">
            <mxPoint x="280" y="560" as="sourcePoint" />
            <mxPoint x="200" y="640" as="targetPoint" />
            <mxPoint as="offset" />
          </mxGeometry>
        </mxCell>
        <mxCell id="Vo0wjB5p105ooSlGNlNh-12" value="If a refund and reversal has already&lt;div&gt;occured&amp;nbsp;&lt;span style=&quot;background-color: initial;&quot;&gt;with two weeks of notification attempts;&lt;/span&gt;&lt;/div&gt;&lt;div&gt;&lt;span style=&quot;background-color: initial;&quot;&gt;Send to FA or Assistant Bursar&lt;/span&gt;&lt;/div&gt;&lt;div&gt;to pullback based on funding type.&lt;/div&gt;&lt;div&gt;&lt;b&gt;&lt;i&gt;NOTE: Change the Reason in DNR to&amp;nbsp;&lt;br&gt;reflect that a pullback request was sent.&lt;/i&gt;&lt;/b&gt;&lt;/div&gt;" style="shape=hexagon;perimeter=hexagonPerimeter2;whiteSpace=wrap;html=1;fixedSize=1;" vertex="1" parent="1">
          <mxGeometry x="50" y="640" width="290" height="100" as="geometry" />
        </mxCell>
        <mxCell id="Vo0wjB5p105ooSlGNlNh-13" value="&lt;font style=&quot;font-size: 16px;&quot;&gt;FA&lt;/font&gt;" style="endArrow=classic;html=1;rounded=0;exitX=0;exitY=1;exitDx=0;exitDy=0;" edge="1" parent="1">
          <mxGeometry x="-0.0008" width="50" height="50" relative="1" as="geometry">
            <mxPoint x="72" y="740" as="sourcePoint" />
            <mxPoint x="-8" y="820" as="targetPoint" />
            <mxPoint as="offset" />
          </mxGeometry>
        </mxCell>
        <mxCell id="Vo0wjB5p105ooSlGNlNh-14" value="Pell Grant, Alt Loans Subsidized/Unsubsidized loans, CO Grant, Inst Sshp." style="shape=hexagon;perimeter=hexagonPerimeter2;whiteSpace=wrap;html=1;fixedSize=1;" vertex="1" parent="1">
          <mxGeometry x="-101" y="820" width="190" height="80" as="geometry" />
        </mxCell>
        <mxCell id="Vo0wjB5p105ooSlGNlNh-15" value="&lt;font style=&quot;font-size: 16px;&quot;&gt;Asst Burs.&lt;/font&gt;" style="endArrow=classic;html=1;rounded=0;exitX=1;exitY=1;exitDx=0;exitDy=0;" edge="1" parent="1">
          <mxGeometry width="50" height="50" relative="1" as="geometry">
            <mxPoint x="318" y="740" as="sourcePoint" />
            <mxPoint x="398" y="820" as="targetPoint" />
          </mxGeometry>
        </mxCell>
        <mxCell id="Vo0wjB5p105ooSlGNlNh-16" value="Cash, Check, Credit Card,&amp;nbsp;&lt;span style=&quot;background-color: transparent; color: light-dark(rgb(0, 0, 0), rgb(255, 255, 255));&quot;&gt;ACH,&amp;nbsp;&lt;/span&gt;&lt;div&gt;529 Payments, COF, Post 9/11 Benefits&lt;/div&gt;&lt;div&gt;3rd Party (Amazon, Americorp, etc.)&lt;/div&gt;" style="shape=hexagon;perimeter=hexagonPerimeter2;whiteSpace=wrap;html=1;fixedSize=1;" vertex="1" parent="1">
          <mxGeometry x="290" y="820" width="250" height="100" as="geometry" />
        </mxCell>
        <mxCell id="Vo0wjB5p105ooSlGNlNh-17" value="Look the account up in TSAAREV to see if any changes occured" style="ellipse;whiteSpace=wrap;html=1;" vertex="1" parent="1">
          <mxGeometry x="408" y="160" width="150" height="80" as="geometry" />
        </mxCell>
        <mxCell id="Vo0wjB5p105ooSlGNlNh-18" value="" style="endArrow=classic;html=1;rounded=0;exitX=1;exitY=0.5;exitDx=0;exitDy=0;" edge="1" parent="1" source="Vo0wjB5p105ooSlGNlNh-17">
          <mxGeometry width="50" height="50" relative="1" as="geometry">
            <mxPoint x="611" y="220" as="sourcePoint" />
            <mxPoint x="640" y="200" as="targetPoint" />
          </mxGeometry>
        </mxCell>
        <mxCell id="Vo0wjB5p105ooSlGNlNh-19" value="Q: Have any financial changes occurred? (FA Pullback, Course Fee(s) removed, CC Refund)" style="rounded=0;whiteSpace=wrap;html=1;" vertex="1" parent="1">
          <mxGeometry x="640" y="168.5" width="160" height="73" as="geometry" />
        </mxCell>
        <mxCell id="Vo0wjB5p105ooSlGNlNh-20" value="&lt;font style=&quot;font-size: 16px;&quot;&gt;No&lt;/font&gt;" style="endArrow=classic;html=1;rounded=0;exitX=0;exitY=1;exitDx=0;exitDy=0;" edge="1" parent="1">
          <mxGeometry width="50" height="50" relative="1" as="geometry">
            <mxPoint x="638" y="241.5" as="sourcePoint" />
            <mxPoint x="558" y="321.5" as="targetPoint" />
          </mxGeometry>
        </mxCell>
        <mxCell id="Vo0wjB5p105ooSlGNlNh-21" value="Leave on DNR" style="shape=hexagon;perimeter=hexagonPerimeter2;whiteSpace=wrap;html=1;fixedSize=1;" vertex="1" parent="1">
          <mxGeometry x="505" y="323" width="110" height="50" as="geometry" />
        </mxCell>
        <mxCell id="Vo0wjB5p105ooSlGNlNh-22" value="&lt;font style=&quot;font-size: 16px;&quot;&gt;Yes&lt;/font&gt;" style="endArrow=classic;html=1;rounded=0;exitX=1;exitY=1;exitDx=0;exitDy=0;" edge="1" parent="1">
          <mxGeometry width="50" height="50" relative="1" as="geometry">
            <mxPoint x="800" y="240" as="sourcePoint" />
            <mxPoint x="880" y="320" as="targetPoint" />
          </mxGeometry>
        </mxCell>
        <mxCell id="Vo0wjB5p105ooSlGNlNh-23" value="&lt;font style=&quot;font-size: 16px;&quot;&gt;Positive Balance&lt;/font&gt;" style="edgeStyle=orthogonalEdgeStyle;rounded=0;orthogonalLoop=1;jettySize=auto;html=1;" edge="1" parent="1" source="Vo0wjB5p105ooSlGNlNh-24">
          <mxGeometry x="-0.0029" relative="1" as="geometry">
            <mxPoint x="1110" y="344" as="targetPoint" />
            <mxPoint as="offset" />
          </mxGeometry>
        </mxCell>
        <mxCell id="Vo0wjB5p105ooSlGNlNh-24" value="Remove from DNR" style="ellipse;whiteSpace=wrap;html=1;" vertex="1" parent="1">
          <mxGeometry x="820" y="320" width="120" height="48" as="geometry" />
        </mxCell>
        <mxCell id="Vo0wjB5p105ooSlGNlNh-25" value="&lt;font style=&quot;font-size: 16px;&quot;&gt;$0 Balance&lt;/font&gt;" style="endArrow=classic;html=1;rounded=0;exitX=0;exitY=1;exitDx=0;exitDy=0;" edge="1" parent="1">
          <mxGeometry width="50" height="50" relative="1" as="geometry">
            <mxPoint x="840" y="360" as="sourcePoint" />
            <mxPoint x="760" y="440" as="targetPoint" />
          </mxGeometry>
        </mxCell>
        <mxCell id="Vo0wjB5p105ooSlGNlNh-26" value="Nothing required" style="shape=hexagon;perimeter=hexagonPerimeter2;whiteSpace=wrap;html=1;fixedSize=1;" vertex="1" parent="1">
          <mxGeometry x="710" y="440" width="110" height="50" as="geometry" />
        </mxCell>
        <mxCell id="Vo0wjB5p105ooSlGNlNh-27" value="&lt;font style=&quot;font-size: 16px;&quot;&gt;Negative Balance&lt;/font&gt;" style="endArrow=classic;html=1;rounded=0;exitX=1;exitY=1;exitDx=0;exitDy=0;" edge="1" parent="1">
          <mxGeometry width="50" height="50" relative="1" as="geometry">
            <mxPoint x="923" y="361" as="sourcePoint" />
            <mxPoint x="1003" y="441" as="targetPoint" />
          </mxGeometry>
        </mxCell>
        <mxCell id="Vo0wjB5p105ooSlGNlNh-28" value="Place on Manual&lt;div&gt;if old term&lt;/div&gt;" style="shape=hexagon;perimeter=hexagonPerimeter2;whiteSpace=wrap;html=1;fixedSize=1;" vertex="1" parent="1">
          <mxGeometry x="949" y="442" width="141" height="58" as="geometry" />
        </mxCell>
        <mxCell id="Vo0wjB5p105ooSlGNlNh-29" value="Student now&lt;div&gt;owes FRCC&lt;/div&gt;" style="shape=hexagon;perimeter=hexagonPerimeter2;whiteSpace=wrap;html=1;fixedSize=1;" vertex="1" parent="1">
          <mxGeometry x="1110" y="320" width="110" height="53" as="geometry" />
        </mxCell>
      </root>
    </mxGraphModel>
  </diagram>
</mxfile>
